<svg xmlns="http://www.w3.org/2000/svg" width="100" height="100" fill="none" viewBox="0 0 100 100">
    <rect width="100" height="100" fill="#fff" rx="10"/>
    <path fill="url(#paint0_linear)" d="M73.3 74.138C79.523 67.86 83.012 59.36 83 50.5c-.007-.546-.227-1.069-.615-1.453-.387-.384-.91-.6-1.453-.6-.545 0-1.067.216-1.454.6-.388.384-.608.907-.615 1.453.009 7.764-3.05 15.214-8.505 20.713-2.648 2.731-5.814 4.902-9.31 6.384C57.55 79.08 53.795 79.844 50 79.844s-7.552-.764-11.048-2.246c-3.497-1.482-6.663-3.653-9.31-6.384-5.448-5.505-8.505-12.952-8.505-20.714 0-7.762 3.057-15.21 8.504-20.714 2.633-2.71 5.775-4.868 9.244-6.35 3.469-1.48 7.196-2.255 10.965-2.278.805.025 1.568.365 2.127.948.559.583.869 1.361.864 2.17-.005.81-.324 1.584-.89 2.16-.565.576-1.332.907-2.137.923-.074 0-.149.005-.223.013-5.734.185-11.175 2.59-15.185 6.713-4.235 4.283-6.612 10.075-6.612 16.112 0 6.037 2.377 11.828 6.612 16.111 2.069 2.13 4.54 3.821 7.27 4.977 2.73 1.155 5.661 1.75 8.622 1.75 2.962 0 5.894-.595 8.623-1.75 2.73-1.156 5.202-2.847 7.27-4.977 4.242-4.278 6.62-10.073 6.611-16.111.009-.951-.17-1.895-.526-2.776-.357-.881-.883-1.683-1.55-2.359-.666-.675-1.46-1.212-2.333-1.578-.874-.366-1.811-.554-2.758-.554-.947 0-1.884.188-2.758.554-.874.366-1.667.903-2.334 1.578-.666.676-1.193 1.478-1.55 2.359-.355.881-.534 1.825-.526 2.776 0 .06.004.118.01.176-.006.058-.01.116-.01.176.014 1.658-.463 3.283-1.37 4.668-.908 1.386-2.204 2.469-3.725 3.113-1.521.644-3.199.82-4.82.504-1.62-.315-3.11-1.107-4.283-2.274-1.172-1.168-1.972-2.66-2.299-4.285-.327-1.625-.166-3.312.463-4.845.628-1.534 1.696-2.845 3.068-3.768 1.371-.922 2.985-1.415 4.635-1.415.274.003.546-.048.8-.151.253-.103.484-.255.679-.449.195-.193.35-.423.455-.677.105-.254.16-.526.16-.801s-.054-.547-.16-.801c-.105-.254-.26-.484-.455-.678-.195-.193-.426-.345-.68-.448-.253-.103-.525-.155-.799-.151-2.45.013-4.84.756-6.87 2.133-2.03 1.377-3.61 3.328-4.538 5.605-.928 2.278-1.163 4.78-.677 7.193.486 2.412 1.673 4.625 3.41 6.36 1.737 1.736 3.947 2.916 6.35 3.39 2.404.476 4.894.225 7.156-.72 2.261-.945 4.194-2.542 5.554-4.589 1.36-2.047 2.085-4.453 2.085-6.914 0-.061-.004-.118-.01-.176.006-.058.01-.117.01-.176-.009-.405.064-.807.213-1.184.148-.376.37-.72.652-1.008.283-.29.62-.52.991-.676.372-.157.771-.238 1.174-.238.403 0 .802.08 1.174.238.372.157.709.386.99.676.283.289.505.632.653 1.008.15.377.222.779.213 1.184.006 4.944-1.942 9.687-5.415 13.189-1.685 1.738-3.698 3.12-5.923 4.063-2.224.944-4.614 1.43-7.029 1.43-2.414 0-4.804-.487-7.029-1.43-2.224-.943-4.238-2.325-5.922-4.063-3.469-3.505-5.416-8.247-5.416-13.19 0-4.942 1.947-9.683 5.416-13.188 1.686-1.736 3.7-3.116 5.923-4.06 2.224-.943 4.613-1.43 7.027-1.433.186 0 .37-.026.55-.076 1.76-.271 3.36-1.186 4.49-2.57 1.13-1.382 1.713-3.136 1.636-4.924-.077-1.788-.81-3.485-2.055-4.764-1.246-1.28-2.918-2.052-4.695-2.169-.075-.008-.15-.012-.224-.012h-.185l-.06.003c-4.301.034-8.552.923-12.509 2.615-3.957 1.693-7.54 4.155-10.546 7.246C20.487 33.147 17 41.644 17 50.5s3.487 17.353 9.7 23.636c3.033 3.122 6.657 5.604 10.658 7.297C41.36 83.127 45.658 84 50 84c4.343 0 8.64-.873 12.642-2.567 4.002-1.694 7.625-4.175 10.658-7.297v.002z"/>
    <defs>
        <linearGradient id="paint0_linear" x1="26.57" x2="68.701" y1="74.017" y2="32.977" gradientUnits="userSpaceOnUse">
            <stop stop-color="#41287B"/>
            <stop offset=".123" stop-color="#462779"/>
            <stop offset=".284" stop-color="#572775"/>
            <stop offset=".465" stop-color="#72266E"/>
            <stop offset=".663" stop-color="#982565"/>
            <stop offset=".87" stop-color="#C82459"/>
            <stop offset=".99" stop-color="#E72452"/>
        </linearGradient>
    </defs>
</svg>
