<svg xmlns="http://www.w3.org/2000/svg" width="12" height="12" fill="none" viewBox="0 0 12 12">
    <circle cx="6" cy="6" r="6" fill="#C4C4C4"/>
    <path fill="#fff" d="M8.308 8.998h-.04c-4.532-.26-5.176-4.086-5.266-5.253-.007-.09.004-.182.032-.269.028-.086.073-.166.132-.236.06-.069.131-.126.212-.167.082-.041.17-.066.26-.073H4.91c.092 0 .183.028.26.08.076.051.135.125.169.21l.35.863c.034.084.043.176.025.265-.018.088-.062.17-.126.234l-.491.496c.077.436.285.838.598 1.151.313.314.714.524 1.15.602l.501-.496c.065-.063.147-.106.236-.123.09-.017.181-.007.265.028l.87.349c.084.035.156.095.206.171.051.076.078.166.077.258v1.218c0 .183-.073.36-.203.49-.13.129-.306.202-.49.202zM3.694 3.46c-.06 0-.12.025-.163.068-.043.043-.067.102-.067.163v.019c.106 1.365.786 4.595 4.83 4.825.03.002.06-.002.09-.012.028-.01.055-.025.077-.045.023-.02.042-.045.055-.072.013-.027.02-.057.023-.087V7.088l-.87-.349-.662.658-.11-.014c-2.008-.251-2.28-2.258-2.28-2.28l-.014-.11.655-.662-.346-.87H3.694z"/>
</svg>
