<svg width="100" height="100" fill="none" xmlns="http://www.w3.org/2000/svg">
    <rect x=".5" y=".5" width="99" height="99" rx="9.5" stroke="#58B368" stroke-dasharray="2.5 2.5"/>
    <path d="M62.5 47.914C61.712 41.768 56.407 37 50 37c-4.96 0-9.27 2.877-11.237 7.41C34.896 45.558 32 49.18 32 53.072 32 57.995 36.037 62 41 62h19.8c3.97 0 7.2-3.204 7.2-7.143a7.125 7.125 0 0 0-1.543-4.413 7.224 7.224 0 0 0-3.958-2.53zm-10.7 5.157v5.358h-3.6V53.07h-5.4l7.2-8.928 7.2 8.928h-5.4z" fill="#8F9197"/>
</svg>
