<svg xmlns="http://www.w3.org/2000/svg" width="80" height="82" viewBox="0 0 80 82">
    <g fill="none" fill-rule="evenodd">
        <g fill-rule="nonzero">
            <g>
                <g>
                    <g>
                        <g>
                            <g transform="translate(-1108 -2102) translate(0 1936) translate(165 162) translate(855) translate(83) translate(5.625 4.821)">
                                <rect width="78.75" height="80.357" fill="#FFF" rx="10"/>
                                <g fill="#58B368" transform="translate(23.304 24.91)">
                                    <path d="M10.421 20.717c-1.557 0-2.825 1.267-2.825 2.825v.942h9.417v-.942c0-1.558-1.267-2.825-2.825-2.825h-3.767z"/>
                                    <circle cx="12.305" cy="14.125" r="2.825"/>
                                    <path d="M5.713 23.542c0-2.596 2.112-4.708 4.708-4.708h1.884c-2.596 0-4.709-2.113-4.709-4.709 0-2.596 2.113-4.708 4.709-4.708 2.596 0 4.708 2.112 4.708 4.708s-2.112 4.709-4.708 4.709h1.883c2.596 0 4.708 2.112 4.708 4.708v.942h9.694c.887 0 1.607-.72 1.607-1.607V11.024c0-.888-.72-1.607-1.607-1.607h-5.483l-6.094 3.047V5.65H3.491c-.888 0-1.608.72-1.608 1.607v15.62c0 .887.72 1.607 1.608 1.607h2.222v-.942zM0 27.309c0 1.56 1.265 2.825 2.825 2.825h26.43c1.56 0 2.888-1.265 2.888-2.825v-.942H0v.942z"/>
                                    <path d="M18.896 9.417l3.767-1.884h9.48V0H18.896v9.417zm9.417-6.592h1.884v1.883h-1.884V2.825zm-3.766 0h1.883v1.883h-1.883V2.825zm-3.767 0h1.883v1.883H20.78V2.825z"/>
                                </g>
                            </g>
                        </g>
                    </g>
                </g>
            </g>
        </g>
    </g>
</svg>
