<svg xmlns="http://www.w3.org/2000/svg" width="80" height="82" viewBox="0 0 80 82">
    <g fill="none" fill-rule="evenodd">
        <g fill-rule="nonzero">
            <g>
                <g>
                    <g>
                        <g>
                            <g transform="translate(-823 -2102) translate(0 1936) translate(165 162) translate(570) translate(83) translate(5.625 4.821)">
                                <rect width="78.75" height="80.357" fill="#FFF" rx="10"/>
                                <g fill="#58B368">
                                    <path d="M32.143 6.11c0-3.374-2.736-6.11-6.11-6.11-3.375 0-6.111 2.736-6.111 6.11 0 1.425.487 2.735 1.304 3.775.395.501.866.94 1.397 1.298.974.655 2.147 1.038 3.41 1.038 3.374 0 6.11-2.736 6.11-6.11zm-9.895-.129l1.377-1.285 1.585 1.7 3.331-2.91 1.24 1.418-4.704 4.108-2.83-3.03zM3.098 6.605l11.155 8.748 5.491-4.306c-1.105-1.402-1.706-3.124-1.706-4.937 0-.317.02-.631.055-.941h-14.5c-.443 0-.803.36-.803.803 0 .247.114.48.308.633z" transform="translate(23.304 28.125)"/>
                                    <path d="M26.033 14.105c-1.82 0-3.545-.604-4.95-1.715l-6.83 5.356L1.3 7.588C.95 7.314.445 7.375.171 7.724.061 7.866 0 8.04 0 8.22v13.933c0 .888.72 1.608 1.607 1.608H26.9c.887 0 1.607-.72 1.607-1.608v-8.437c-.789.256-1.621.389-2.474.389z" transform="translate(23.304 28.125)"/>
                                </g>
                            </g>
                        </g>
                    </g>
                </g>
            </g>
        </g>
    </g>
</svg>
