<svg xmlns="http://www.w3.org/2000/svg" width="80" height="82" viewBox="0 0 80 82">
    <g fill="none" fill-rule="evenodd">
        <g fill-rule="nonzero">
            <g>
                <g>
                    <g>
                        <g>
                            <g transform="translate(-538 -2102) translate(0 1936) translate(165 162) translate(285) translate(83) translate(5.625 4.821)">
                                <rect width="78.75" height="80.357" fill="#FFF" rx="10"/>
                                <g fill="#58B368">
                                    <path d="M23.605 7.533c-1.04 0-1.883-.843-1.883-1.883V1.883c0-1.04.843-1.883 1.883-1.883s1.883.843 1.883 1.883V5.65c0 1.04-.843 1.883-1.883 1.883z" transform="translate(23.304 24.107)"/>
                                    <path d="M28.69 3.767h-1.318V5.65c0 2.077-1.69 3.767-3.767 3.767s-3.767-1.69-3.767-3.767V3.767h-7.533V5.65c0 2.077-1.69 3.767-3.767 3.767S4.77 7.727 4.77 5.65V3.767H3.453C1.549 3.767 0 5.316 0 7.22v4.206h32.143V7.22c0-1.904-1.55-3.453-3.453-3.453z" transform="translate(23.304 24.107)"/>
                                    <path d="M8.538 7.533c-1.04 0-1.883-.843-1.883-1.883V1.883C6.655.843 7.498 0 8.538 0s1.883.843 1.883 1.883V5.65c0 1.04-.843 1.883-1.883 1.883zM0 13.31v15.38c0 1.904 1.549 3.453 3.453 3.453H28.69c1.904 0 3.453-1.55 3.453-3.453V13.31H0zM17.061 25.55c0 2.077-1.69 3.767-3.767 3.767-1.868 0-3.472-1.394-3.73-3.243-.024-.172-.036-.349-.036-.524 0-.52.421-.942.941-.942s.942.422.942.942c0 .089.006.177.018.264.129.923.93 1.62 1.865 1.62 1.039 0 1.884-.845 1.884-1.884 0-1.038-.845-1.883-1.884-1.883-.52 0-.941-.422-.941-.942s.421-.942.941-.942c1.039 0 1.884-.845 1.884-1.883 0-1.039-.845-1.883-1.884-1.883-.898 0-1.675.638-1.848 1.517-.1.51-.595.843-1.105.742-.51-.1-.843-.595-.743-1.105.346-1.76 1.9-3.038 3.696-3.038 2.077 0 3.767 1.69 3.767 3.767 0 1.124-.496 2.134-1.28 2.825.784.69 1.28 1.7 1.28 2.825zm5.554 2.825c0 .52-.421.942-.941.942s-.942-.422-.942-.942V18.018h-1.474c-.52 0-.941-.422-.941-.942s.421-.942.941-.942h2.416c.52 0 .941.422.941.942v11.3z" transform="translate(23.304 24.107)"/>
                                </g>
                            </g>
                        </g>
                    </g>
                </g>
            </g>
        </g>
    </g>
</svg>
