<svg xmlns="http://www.w3.org/2000/svg" width="80" height="82" viewBox="0 0 80 82">
    <g fill="none" fill-rule="evenodd">
        <g fill-rule="nonzero">
            <g>
                <g>
                    <g>
                        <g transform="translate(-253 -2102) translate(0 1936) translate(165 162) translate(83) translate(5.625 4.821)">
                            <rect width="78.75" height="80.357" fill="#FFF" rx="10"/>
                            <g fill="#58B368">
                                <path d="M19.925 1.012c-.153-.497-.68-.782-1.176-.624-.687.21-1.357.494-1.99.846-.455.252-.62.825-.366 1.28.251.454.825.62 1.28.367.518-.287 1.066-.52 1.627-.693.498-.152.777-.679.625-1.176zm.887 17.703c-.59-.069-1.17-.197-1.727-.385-.488-.162-1.026.101-1.193.593-.165.493.1 1.027.594 1.193.681.229 1.391.386 2.111.47.496.061.982-.298 1.043-.829.06-.516-.311-.984-.828-1.042zM14.832 3.87c-.417-.315-1.005-.234-1.318.184-.436.577-.812 1.2-1.116 1.851-.22.471-.017 1.032.454 1.253.47.218 1.032.017 1.253-.455.248-.532.555-1.042.912-1.514.313-.415.23-1.006-.184-1.319zm-1.521 6.256c.007-.52-.407-.948-.927-.956h-.015c-.514 0-.933.412-.941.927 0 .721.026 1.336.182 2.15.096.502.578.845 1.102.748.51-.098.845-.59.748-1.102-.192-.994-.145-1.675-.149-1.767zm16.788-1.482c.106.54.16 1.095.16 1.649l.941.126.943-.126c0-.676-.066-1.353-.196-2.013-.102-.512-.598-.84-1.106-.742-.51.1-.843.595-.742 1.106zm-.073-3.006c.425-.3.527-.887.227-1.312-.415-.587-.893-1.135-1.423-1.627-.38-.35-.974-.332-1.33.05-.354.38-.332.976.048 1.33.434.403.826.851 1.166 1.332.3.425.886.527 1.312.227zm.709 7.738c-.471-.217-1.031-.011-1.25.46-.247.537-.552 1.047-.904 1.52-.312.417-.226 1.007.19 1.318.417.312 1.008.225 1.318-.19.432-.578.804-1.203 1.107-1.858.218-.472.012-1.032-.461-1.25zm-5.01-11.69c.169-.492-.093-1.028-.585-1.197-.68-.232-1.39-.394-2.108-.481-.521-.061-.987.306-1.048.822-.062.517.306.986.822 1.048.588.07 1.168.203 1.723.394.502.169 1.03-.1 1.197-.586zm.213 15.995c-.515.29-1.06.527-1.622.702-.497.155-.773.684-.618 1.18.158.505.695.77 1.179.617.689-.214 1.356-.504 1.986-.859.454-.255.614-.83.358-1.283-.255-.452-.829-.615-1.283-.357z" transform="translate(23.304 24.107)"/>
                                <path d="M22.325 9.816c-.253-.254-.627-.34-.966-.227L1.308 16.322c-.37.125-.626.465-.641.856-.016.39.21.75.57.903l5.247 2.248-6.208 6.21c-.368.367-.368.963 0 1.331l3.995 3.995c.184.184.425.276.666.276.24 0 .481-.092.665-.276l6.21-6.208 2.248 5.247c.154.36.521.584.903.57.39-.016.731-.27.855-.641l6.734-20.051c.113-.339.025-.713-.227-.966z" transform="translate(23.304 24.107)"/>
                            </g>
                        </g>
                    </g>
                </g>
            </g>
        </g>
    </g>
</svg>
