<svg xmlns="http://www.w3.org/2000/svg" width="302" height="121" viewBox="0 0 302 121">
    <g fill="none" fill-rule="evenodd">
        <g>
            <g>
                <g>
                    <g>
                        <g>
                            <path fill="#767676" fill-opacity=".15" d="M10.92 60.334C34.65 32.926 59.507 44.08 82.682 50.285c16.808 4.5 33.508-3.78 54.724-31.668C166.34-19.416 266.63 3.65 248.343 62.166c-8.85 28.317 68.329 30.528 50.098 58.834l-282.077-1.242s-32.19-28.533-5.444-59.424z" opacity=".4" transform="translate(-83 -1118) translate(0 244) translate(165 50) translate(0 603) translate(-82 221)"/>
                            <g>
                                <path fill="#EFEEB4" fill-rule="nonzero" d="M22.98 30.554l.427-.038c-.163-3.11-2.517-4.85-2.517-4.85-1.648-1.461-2.184-3.065-2.184-3.065s2.782-3.245.172-5.306c0 0-1.906-1.155-3.46-1.061 0 0 2.202 3.693 1.49 4.061-.714.367-2.158-4.293-2.158-4.293s-4.338-.42-5.734.25c0 0 3.709 3.035 2.928 3.216-.781.181-4.787-2.798-4.787-2.798s-4.038.687-3.822 3.15c.215 2.463 1.606 3.224 2.218 3.158.611-.065 4.188-1.43 4.266-.93.078.502-2.075 2.138-3.583 2.216 0 0 2.847 3.139 4.738 2.233 1.892-.906 2.054-2.343 3.233-2.881 1.18-.54 2.186-.538 1.699.012-.487.55-2.621 1.083-3.296 2.276-.674 1.193-1.28 1.998.678 1.703 1.958-.295 5.139-1.727 5.279-3.367l.017-.205c.003.13-.017.205-.017.205.408.073 1.256.824 1.869 1.413.094.104.233.242.433.427l.184.187c1.243 1.361 1.927 4.287 1.927 4.287" transform="translate(-83 -1118) translate(0 244) translate(165 50) translate(0 603) translate(-82 221) translate(99 70)"/>
                                <path fill="#DAD873" fill-rule="nonzero" d="M28.43 18.52s-4.424-2.478-2.359-5.84c0 0 1.652-2.065 3.421-2.596 0 0-.943 5.014 0 5.132.944.118.65-5.663.65-5.663s4.66-2.242 6.489-2.065c0 0-2.89 4.897-1.947 4.779.944-.118 4.188-5.074 4.188-5.074s4.778-.885 5.545 1.947c.767 2.831-.472 4.247-1.18 4.425-.708.177-5.25.118-5.132.707.118.59 3.186 1.534 4.896 1.003 0 0-1.887 4.66-4.365 4.424-2.478-.235-3.244-1.77-4.778-1.887-1.534-.118-2.655.295-1.888.707.767.414 3.363.136 4.602 1.19 1.239 1.052 2.24 1.7-.06 2.173-2.3.472-6.43.177-7.256-1.592l-.825-1.77" transform="translate(-83 -1118) translate(0 244) translate(165 50) translate(0 603) translate(-82 221) translate(99 70)"/>
                                <path fill="#EFEEB4" fill-rule="nonzero" d="M42.235 10.025s-12.388 4.011-13.804 8.494c0 0 .059 2.006-1.18 4.307 0 0-1.91 2.9-.821 6.432l.491-.132s-.43-3.503.382-5.533c.032-.074.08-.182.141-.314.147-.287.245-.498.308-.652.442-.906 1.08-2.09 1.504-2.337 0 0-2.772-3.894 12.979-10.265" transform="translate(-83 -1118) translate(0 244) translate(165 50) translate(0 603) translate(-82 221) translate(99 70)"/>
                                <path fill="#DAD873" fill-rule="nonzero" d="M21.392 15.102s5.832-3.265 3.11-7.697c0 0-2.177-2.722-4.51-3.422 0 0 1.244 6.61 0 6.765-1.244.155-.855-7.465-.855-7.465S12.994.328 10.583.562c0 0 3.81 6.453 2.566 6.298C11.905 6.704 7.63.172 7.63.172S1.328-.993.318 2.74C-.691 6.47.94 8.337 1.874 8.57c.933.233 6.92.155 6.765.933-.155.778-4.199 2.022-6.454 1.322 0 0 2.488 6.143 5.754 5.832 3.266-.311 4.277-2.333 6.299-2.488 2.022-.156 3.5.388 2.488.932-1.01.545-4.432.18-6.065 1.568-1.633 1.388-2.955 2.243.078 2.865 3.033.622 8.476.233 9.565-2.1l1.088-2.333" transform="translate(-83 -1118) translate(0 244) translate(165 50) translate(0 603) translate(-82 221) translate(99 70)"/>
                                <path fill="#EFEEB4" fill-rule="nonzero" d="M22.948 20.78c-1.634-3.034-1.556-5.678-1.556-5.678C19.526 9.192 3.196 3.905 3.196 3.905c20.762 8.398 17.108 13.53 17.108 13.53.56.327 1.398 1.883 1.98 3.077.083.204.214.485.41.866.079.173.142.314.185.413 1.07 2.675.503 7.293.503 7.293l.648.174c1.435-4.655-1.082-8.479-1.082-8.479" transform="translate(-83 -1118) translate(0 244) translate(165 50) translate(0 603) translate(-82 221) translate(99 70)"/>
                                <path fill="#454D66" d="M10.165 27.93c0 6.309 5.114 11.423 11.424 11.423 1.317 0 2.582-.222 3.76-.633 4.462-1.555 7.664-5.8 7.664-10.79H10.165" transform="translate(-83 -1118) translate(0 244) translate(165 50) translate(0 603) translate(-82 221) translate(99 70)"/>
                                <path fill="#454D66" d="M17.685 27.93c0 4.28 1.025 8.638 4.509 10.595.579.325 2.518-.027 3.154.195 4.463-1.555 7.665-5.8 7.665-10.79H17.685" transform="translate(-83 -1118) translate(0 244) translate(165 50) translate(0 603) translate(-82 221) translate(99 70)"/>
                                <path fill="#5E667F" d="M21.589 39.353c.464.058-1.873 0-1.392 0 6.309 0 11.423-5.115 11.423-11.424h-2.838c0 5.83-1.554 10.725-7.193 11.424" transform="translate(-83 -1118) translate(0 244) translate(165 50) translate(0 603) translate(-82 221) translate(99 70)"/>
                                <path fill="#5E667F" d="M10.007 39.935H33.17c0-.39-.158-.742-.414-.997-.254-.255-.607-.413-.996-.413H11.416c-.778 0-1.41.631-1.41 1.41M9.905 28.28L33.388 28.28 33.388 27.929 9.905 27.929z" transform="translate(-83 -1118) translate(0 244) translate(165 50) translate(0 603) translate(-82 221) translate(99 70)"/>
                            </g>
                            <g>
                                <path fill="#2C3A64" d="M34.88 110.651c.02.012.045.02.073.032h14.764c-.138-.526-.621-1.483-2.31-1.758-2.29-.372-6.262-1.703-7.147-4.634-.028-.094-.053-.19-.076-.288-.703-3.132-5.817.96-5.817.96s-.016.123-.037.337c-.119 1.148-.422 4.866.55 5.351" transform="translate(-83 -1118) translate(0 244) translate(165 50) translate(0 603) translate(-82 221) translate(166.148 8.73)"/>
                                <path fill="#343C55" fill-rule="nonzero" d="M54.405 57.626s-9.602 34.107-12.493 47.296c0 0-7.127 1.43-8.235-.81 0 0 2.296-37.141 6.52-41.86 5.255-5.868 14.208-4.626 14.208-4.626" transform="translate(-83 -1118) translate(0 244) translate(165 50) translate(0 603) translate(-82 221) translate(166.148 8.73)"/>
                                <path fill="#FFE8D9" d="M55.199 23.056s-.252-1.526.14-2.797c.394-1.27 2.038-4.622 1.518-5.786-.52-1.165-2.403-4.298-3.565-4.288-1.16.009 1.222 3.353.894 4.397-.327 1.045-.435 1.13-.839 1.038-.404-.093-1.018-2.092-1.222-1.626-.204.467-.085 3.562.299 4.335.383.772-.404 5.129-.404 5.129l3.179-.402" transform="translate(-83 -1118) translate(0 244) translate(165 50) translate(0 603) translate(-82 221) translate(166.148 8.73)"/>
                                <path fill="#F3BB67" fill-rule="nonzero" d="M56.128 22.377s-2.571-1.46-4.56-.845c0 0-3.945 11.365-6.119 19.722-4.17-10.293-6.737-20.558-6.737-20.558s-5.058 6.984-6.884 11.628c-1.825 4.644 9.086 20.938 13.32 22.217 4.418 1.334 3.614-.003 6.107-1.43.802-1.04 3.367-6.22 4.873-30.734" transform="translate(-83 -1118) translate(0 244) translate(165 50) translate(0 603) translate(-82 221) translate(166.148 8.73)"/>
                                <path fill="#2C3A64" d="M67.758 111.183l.074.031h14.764c-.138-.525-.62-1.483-2.31-1.757-2.29-.372-6.26-1.703-7.147-4.634-.027-.094-.053-.19-.076-.288-.703-3.132-5.816.96-5.816.96s-.016.123-.037.337c-.12 1.148-.422 4.866.548 5.351" transform="translate(-83 -1118) translate(0 244) translate(165 50) translate(0 603) translate(-82 221) translate(166.148 8.73)"/>
                                <path fill="#454D66" fill-rule="nonzero" d="M57.27 56.797s-1.438.64-3.213 1.95c-.202-1.029-.492-1.697-.492-1.697-12.67-3.3-46.585-3.03-46.585-3.03s-7.292 1.826-5.151 12.44c1.97 9.767 34.534 5.244 45.052 2.314.246-.068.484-.14.714-.215-.836 6.223 5.024 15.1 10.155 23.27 4.229 6.736 7.829 13.553 7.829 13.553 2.123 1.318 9.254.556 9.254.556-4.507-12.73-17.563-49.14-17.563-49.14" transform="translate(-83 -1118) translate(0 244) translate(165 50) translate(0 603) translate(-82 221) translate(166.148 8.73)"/>
                                <path fill="#FFE8D9" d="M29.31 17.248s3.637 11.644 9.1 14.249c0 0 .517-3.533-.367-6.22.722-.552 1.36-1.065 1.918-1.527 1.853-1.542 2.79-2.529 2.79-2.529l-1.363-9.53c-.89 1.018-1.807 1.851-2.721 2.535-4.717 3.518-9.358 3.022-9.358 3.022" transform="translate(-83 -1118) translate(0 244) translate(165 50) translate(0 603) translate(-82 221) translate(166.148 8.73)"/>
                                <path fill="#FAD9C2" d="M38.667 14.226s-1.833 5.04 1.294 9.524c1.853-1.542 2.79-2.529 2.79-2.529l-.813-5.678c-1.956-1.093-3.271-1.317-3.271-1.317" transform="translate(-83 -1118) translate(0 244) translate(165 50) translate(0 603) translate(-82 221) translate(166.148 8.73)"/>
                                <path fill="#FFE8D9" d="M44.136 22.325s-8.055-5.345-4.65-10.31c3.405-4.965 4.66-8.998 9.946-5.796 5.288 3.202 4.977 5.775 4.243 7.709-.733 1.933-7.356 9.659-9.539 8.397" transform="translate(-83 -1118) translate(0 244) translate(165 50) translate(0 603) translate(-82 221) translate(166.148 8.73)"/>
                                <path fill="#454D66" fill-rule="nonzero" d="M40.423 1.62c-.035-.134-.186-.303-.594-.532 0 0 .44-.049.893.16.378-.55 1.202-1.446 2.33-1.209 0 0-.682.028-1.061.623 1.756-.643 4.68-.305 11.306 3.627 8.733 5.182 2.841 9.625 1.319 9.753-1.522.128-3.538-3.255-5.817-4.152-2.28-.898-4.272 2.115-5.233 2.193-.96.077-.285-.56-1.065-1.516-.78-.955-1.706.692-1.954 1.935-.248 1.244-2.344 2.019-2.344 2.019l-.648-2.213c-.649-2.213 1.207-9.332 2.518-10.4l.35-.287" transform="translate(-83 -1118) translate(0 244) translate(165 50) translate(0 603) translate(-82 221) translate(166.148 8.73)"/>
                                <path fill="#FFCA7B" fill-rule="nonzero" d="M39.11 36.65c-2.419 5.73-4.63 9.389-4.92 9.867-1.043 1.723-2.162 3.305-3.186 4.686l-.097.132c-2.016 2.712-5.098 3.459-5.002 4.139.192 1.365-3.254 4.638-8.937 6.09-6.594 1.684-14.234 2.495-16.166.266-.645-.748-.86-2.124-.789-3.836.141-3.604 4.678-18.118 4.678-18.118C12.451 16.39 34.677 16.39 34.677 16.39s-.436 5.626 5.019 7.579c.007.012 1.282 8.258-.585 12.68" transform="translate(-83 -1118) translate(0 244) translate(165 50) translate(0 603) translate(-82 221) translate(166.148 8.73)"/>
                                <path fill="#FFE8D9" d="M52.163 53.36s3.337 1.18 4.253 1.754c.915.572 3.022 3.456 3.26 4.467.237 1.011.514 3.983.341 4.48-.172.497-2.727-1.41-3.295-3.203-.567-1.795-2.026-2.277-1.97-2.18.056.096.802 2.392.644 2.492-.157.099-.837.27-1.453-1.011-.616-1.282-1.837-2.22-1.606-3.544.23-1.325-.174-3.255-.174-3.255" transform="translate(-83 -1118) translate(0 244) translate(165 50) translate(0 603) translate(-82 221) translate(166.148 8.73)"/>
                                <path fill="#F3BB67" fill-rule="nonzero" d="M26.015 55.663c.193 1.365-3.364 4.449-9.047 5.9-4.74-9.43 4.272-31.017 4.272-31.017l9.764 20.657c-2.06 2.782-5.086 3.77-4.99 4.46" transform="translate(-83 -1118) translate(0 244) translate(165 50) translate(0 603) translate(-82 221) translate(166.148 8.73)"/>
                                <path fill="#F3BB67" fill-rule="nonzero" d="M34.19 46.517c-1.043 1.723-2.162 3.305-3.186 4.686l-.097.132c-1.339-.517-2.668-1.547-3.338-2.494-1.538-2.17-1.664-15.225-1.664-15.225s6.295 7.777 8.285 12.901" transform="translate(-83 -1118) translate(0 244) translate(165 50) translate(0 603) translate(-82 221) translate(166.148 8.73)"/>
                                <path fill="#FFCA7B" fill-rule="nonzero" d="M53.444 53.654S38.216 49.39 30.4 47.526c.688-9.222 2.945-37.103-11.256-25.942 0 0-1.073 29.88 5.808 35.932 0 0 22.09.468 26.296.21 0 0 1.236-.64 1.543-1.066.982-1.364.653-3.006.653-3.006" transform="translate(-83 -1118) translate(0 244) translate(165 50) translate(0 603) translate(-82 221) translate(166.148 8.73)"/>
                                <path fill="#58B368" fill-rule="nonzero" d="M40.437 71.998v5.874c0 1.213-.992 2.205-2.205 2.205H3.506c-1.212 0-2.204-.992-2.204-2.205v-5.874c0-1.213.992-2.205 2.204-2.205h34.726c1.213 0 2.205.992 2.205 2.205" transform="translate(-83 -1118) translate(0 244) translate(165 50) translate(0 603) translate(-82 221) translate(166.148 8.73)"/>
                                <path fill="#72CF82" fill-rule="nonzero" d="M40.437 76.803v1.07c0 1.212-.992 2.204-2.205 2.204H3.506c-1.212 0-2.204-.992-2.204-2.205v-1.158h38.503c.219 0 .432.031.632.089" transform="translate(-83 -1118) translate(0 244) translate(165 50) translate(0 603) translate(-82 221) translate(166.148 8.73)"/>
                                <path fill="#E8C6A7" d="M9.662 80.077l-1.565 5.93h-.002l-6.517 24.678H.892L4.66 90.21c.003-.02.009-.04.013-.062l1.863-10.125 3.127.053M40.437 110.685h-.685l-5.31-20.103v-.003l-1.207-4.571-.002-.002-1.565-5.93 3.127-.052 1.863 10.125.012.062 3.767 20.474M29.86 87.849l-.013-.008c-.017-.03-.012-.023.013.008" transform="translate(-83 -1118) translate(0 244) translate(165 50) translate(0 603) translate(-82 221) translate(166.148 8.73)"/>
                            </g>
                        </g>
                    </g>
                </g>
            </g>
        </g>
    </g>
</svg>
