<svg xmlns="http://www.w3.org/2000/svg" width="62" height="62" viewBox="0 0 62 62">
    <g fill="none" fill-rule="evenodd">
        <g fill-rule="nonzero">
            <g>
                <g>
                    <g>
                        <g>
                            <g transform="translate(-755 -1260) translate(0 1190) translate(165 50) translate(570) translate(20 20) translate(.469 .616)">
                                <rect width="61" height="61" fill="#F6F8F7" rx="10"/>
                                <g fill="#58B368">
                                    <path d="M29.852.05c-2.287 0-4.148 1.86-4.148 4.148 0 1.102.433 2.104 1.137 2.848l-3.478 5.24c-.341-.09-.7-.14-1.07-.14-1.077 0-2.058.412-2.796 1.086l-2.594-2.594c.296-.57.465-1.218.465-1.905 0-2.287-1.86-4.147-4.148-4.147-2.287 0-4.148 1.86-4.148 4.147 0 .633.143 1.232.397 1.769l-2.951 2.39c-.673-.47-1.49-.746-2.37-.746-2.287 0-4.148 1.86-4.148 4.148 0 2.287 1.86 4.148 4.148 4.148 2.287 0 4.148-1.861 4.148-4.148 0-.593-.126-1.156-.35-1.666l2.999-2.429c.653.431 1.435.683 2.275.683.785 0 1.52-.22 2.147-.6l2.923 2.922c-.095.348-.146.713-.146 1.09 0 2.287 1.86 4.148 4.148 4.148 2.287 0 4.148-1.861 4.148-4.148 0-1.106-.436-2.111-1.144-2.855l3.475-5.237c.345.093.707.143 1.08.143C32.14 8.345 34 6.485 34 4.198S32.14.05 29.852.05zM4.148 18.194c-1.048 0-1.9-.853-1.9-1.9 0-1.048.852-1.9 1.9-1.9s1.9.852 1.9 1.9c0 1.047-.852 1.9-1.9 1.9zm9.072-7.56c-1.048 0-1.9-.853-1.9-1.9 0-1.048.852-1.9 1.9-1.9s1.9.852 1.9 1.9c0 1.047-.852 1.9-1.9 1.9zm9.072 7.56c-1.048 0-1.9-.853-1.9-1.9 0-1.048.852-1.9 1.9-1.9s1.9.852 1.9 1.9c0 1.047-.852 1.9-1.9 1.9zm7.56-12.096c-1.048 0-1.9-.852-1.9-1.9s.852-1.9 1.9-1.9 1.9.852 1.9 1.9c0 1.047-.852 1.9-1.9 1.9z" transform="translate(14 20)"/>
                                </g>
                            </g>
                        </g>
                    </g>
                </g>
            </g>
        </g>
    </g>
</svg>
