<svg xmlns="http://www.w3.org/2000/svg" width="62" height="62" viewBox="0 0 62 62">
    <g fill="none" fill-rule="evenodd">
        <g fill-rule="nonzero">
            <g>
                <g>
                    <g>
                        <g>
                            <g transform="translate(-470 -1260) translate(0 1190) translate(165 50) translate(285) translate(20 20) translate(.469 .616)">
                                <rect width="61" height="61" fill="#F6F8F7" rx="10"/>
                                <g fill="#58B368">
                                    <path d="M23.1 10.875L21.275 12.7c.775 1.425 1.225 3.062 1.225 4.8 0 5.512-4.488 10-10 10-5.513 0-10-4.488-10-10 0-5.513 4.487-10 10-10 1.738 0 3.375.45 4.8 1.225L19.125 6.9C17.212 5.7 14.937 5 12.5 5 5.612 5 0 10.612 0 17.5 0 24.387 5.612 30 12.5 30 19.387 30 25 24.387 25 17.5c0-2.438-.7-4.713-1.9-6.625z" transform="translate(16 16)"/>
                                    <path d="M19.875 14.1l-1.95 1.95c.137.462.2.95.2 1.45 0 3.1-2.525 5.625-5.625 5.625S6.875 20.6 6.875 17.5 9.4 11.875 12.5 11.875c.5 0 .988.062 1.45.2l1.95-1.95c-1.037-.488-2.188-.75-3.4-.75-4.475 0-8.125 3.65-8.125 8.125s3.65 8.125 8.125 8.125 8.125-3.65 8.125-8.125c0-1.213-.262-2.363-.75-3.4z" transform="translate(16 16)"/>
                                    <path d="M12.5 21.25c-2.068 0-3.75-1.683-3.75-3.75 0-2.068 1.682-3.75 3.75-3.75s3.75 1.682 3.75 3.75c0 2.067-1.682 3.75-3.75 3.75zm0-5c-.689 0-1.25.56-1.25 1.25 0 .688.561 1.25 1.25 1.25s1.25-.562 1.25-1.25c0-.69-.561-1.25-1.25-1.25z" transform="translate(16 16)"/>
                                    <path d="M12.5 18.437c-.24 0-.48-.091-.662-.275-.367-.366-.367-.96 0-1.326l9.374-9.375c.367-.366.96-.366 1.327 0 .366.366.366.96 0 1.326l-9.375 9.375c-.184.184-.424.275-.664.275z" transform="translate(16 16)"/>
                                    <path d="M25.313 8.75h-3.125c-.518 0-.938-.42-.938-.938V4.687c0-.249.099-.487.275-.662l3.75-3.75c.269-.27.673-.348 1.021-.204.35.145.579.487.579.866v2.188h2.188c.378 0 .72.228.866.578.145.35.065.754-.204 1.022l-3.75 3.75c-.175.176-.414.275-.663.275z" transform="translate(16 16)"/>
                                </g>
                            </g>
                        </g>
                    </g>
                </g>
            </g>
        </g>
    </g>
</svg>
