<svg xmlns="http://www.w3.org/2000/svg" width="62" height="62" viewBox="0 0 62 62">
    <g fill="none" fill-rule="evenodd">
        <g fill-rule="nonzero">
            <g>
                <g>
                    <g>
                        <g transform="translate(-185 -1260) translate(0 1190) translate(165 50) translate(20 20) translate(.469 .616)">
                            <rect width="61" height="61" fill="#F6F8F7" rx="10"/>
                            <g fill="#58B368">
                                <path d="M24.167 11.758L13.122.71c-.651-.65-1.705-.642-2.348 0-.647.648-.647 1.7 0 2.347L21.82 14.104c.647.647 1.7.647 2.347 0 .649-.649.649-1.698 0-2.346zM9.955 4.585l-.084.417c-.585 2.93-2.008 5.712-3.933 7.967l6.01 6.01c2.254-1.925 4.999-3.386 7.928-3.973l.417-.083L9.955 4.585zM4.836 14.214L.73 18.32c-.97.97-.974 2.546 0 3.52l2.347 2.347c.97.97 2.546.974 3.52 0l4.106-4.107-5.866-5.866zm.587 6.453c-.324.324-.85.324-1.173 0-.324-.324-.324-.849 0-1.173l1.173-1.173c.324-.324.849-.324 1.173 0 .324.324.324.849 0 1.173l-1.173 1.173zM14.166 24.628l1.13-1.128c.974-.975.97-2.55 0-3.52l-.84-.839c-.462.312-.905.65-1.335 1.01l1.001 1.003c.323.322.326.845 0 1.172l-1.147 1.148-1.686-1.634-2.347 2.347 3.765 3.647c.642.644 1.697.648 2.345 0 .647-.648.647-1.7 0-2.348l-.886-.858zM17.518 0c-.458 0-.83.371-.83.83v1.659c0 .459.372.83.83.83.459 0 .83-.371.83-.83V.829c0-.458-.371-.829-.83-.829zM24.155 6.637h-1.659c-.459 0-.83.371-.83.83 0 .458.371.83.83.83h1.66c.458 0 .829-.372.829-.83 0-.459-.371-.83-.83-.83zM23.083 1.902c-.324-.324-.85-.324-1.174 0l-1.659 1.66c-.324.324-.324.849 0 1.173.324.324.85.324 1.173 0l1.66-1.66c.324-.324.324-.849 0-1.173z" transform="translate(18.008 16)"/>
                            </g>
                        </g>
                    </g>
                </g>
            </g>
        </g>
    </g>
</svg>
