<svg xmlns="http://www.w3.org/2000/svg" width="147" height="40" viewBox="0 0 147 40">
    <g fill="none" fill-rule="evenodd">
        <g>
            <g>
                <g fill="#454D66">
                    <path d="M6.953.099l3.513 3.513v34.67l-3.56 3.56-3.368-3.37v5.537L0 40.47V7.05l3.598-3.596 3.33 3.33V.124l.025-.025zM3.538 28.448v5.02l3.39 3.39v-5.02l-3.39-3.39zm0-10.025v5.02l3.39 3.39v-5.02l-3.39-3.39zm0-10.024v5.02l3.39 3.39v-5.02l-3.39-3.39z" transform="translate(-162 -15) translate(162 15) rotate(45 16.252 39.323)"/>
                </g>
                <g fill-rule="nonzero">
                    <path fill="#58B368" d="M5.268 17.158c3.02 0 5.2-1.34 5.2-3.792 0-2.498-1.704-3.338-3.52-3.678l-2.27-.432c-.568-.113-.886-.363-.886-.817 0-.454.522-.818 1.385-.818 1.18 0 1.59.681 1.567 1.226h3.45c0-2.202-1.861-3.973-4.949-3.973-3.179 0-4.882 1.59-4.882 3.52 0 2.383 1.726 3.36 3.633 3.723l1.749.34c.817.16 1.203.41 1.203.932 0 .408-.431.862-1.68.862-1.25 0-1.771-.658-1.771-1.317H0c.068 2.43 1.567 4.224 5.268 4.224zM15.519 16.953L15.519 5.078 12.023 5.078 12.023 16.953zM20.481 16.953L22.638 13.093 22.729 13.093 24.886 16.953 28.746 16.953 28.746 16.726 25.113 10.982 28.609 5.305 28.609 5.078 24.84 5.078 22.729 8.825 22.638 8.825 20.526 5.078 16.757 5.078 16.757 5.305 20.254 10.982 16.621 16.726 16.621 16.953z" transform="translate(-162 -15) translate(162 15) translate(41.14 10.32)"/>
                    <path fill="#454D66" d="M33.57 1.769v15.184h-3.496V1.77h3.496zM40.508 4.874c3.246 0 5.2 1.794 5.2 4.269v7.81h-3.134l-.25-1.067h-.09c-.66.75-1.704 1.272-3.18 1.272-2.679 0-4.155-1.612-4.155-3.724 0-2.203 1.499-3.656 4.768-3.656.886 0 2.067.182 2.543.34v-.975c0-.818-.522-1.454-1.816-1.454-1.09 0-1.726.59-1.726 1.317h-3.27c0-2.225 1.613-4.132 5.11-4.132zm-.432 7.243c-1.135 0-1.725.5-1.725 1.135 0 .681.544 1.181 1.589 1.181 1.43 0 2.27-.84 2.27-1.816v-.114c-.726-.295-1.453-.386-2.134-.386zM58.593 1.769v15.184h-3.134l-.363-1.135h-.09c-.568.681-1.477 1.34-3.157 1.34-2.997 0-4.813-2.589-4.813-6.154 0-3.542 1.816-6.13 4.813-6.13 1.592 0 2.49.59 3.064 1.232l.092.108h.091V1.769h3.497zm-5.677 6.17c-1.77 0-2.338 1.408-2.338 3.065 0 1.658.613 3.088 2.338 3.088 1.726 0 2.339-1.43 2.339-3.088 0-1.657-.568-3.065-2.339-3.065zM71.478 1.769v15.184h-3.133l-.363-1.135h-.091c-.568.681-1.476 1.34-3.156 1.34-2.997 0-4.814-2.589-4.814-6.154 0-3.542 1.817-6.13 4.814-6.13 1.592 0 2.49.59 3.063 1.232l.093.108h.09V1.769h3.497zm-5.676 6.17c-1.771 0-2.339 1.408-2.339 3.065 0 1.658.613 3.088 2.339 3.088s2.339-1.43 2.339-3.088c0-1.657-.568-3.065-2.339-3.065zM78.62 4.874c3.632 0 5.676 2.566 5.676 5.79v1.294h-7.924c.022 1.385.726 2.361 2.316 2.361 1.294 0 1.861-.635 2.066-1.18h3.383c-.318 2.134-2.202 4.019-5.45 4.019-3.746 0-5.88-2.725-5.88-6.13 0-3.361 1.953-6.154 5.812-6.154zm0 2.86c-1.5 0-2.158.886-2.226 2.022h4.337c-.068-1.136-.726-2.021-2.112-2.021zM89.121 16.953v-5.858c0-1.907 1.067-3.02 2.725-3.02h1.135V4.874h-.817c-1.522 0-2.52.885-3.043 1.93h-.09l-.273-1.726H85.85v11.875h3.27zM98.942 17.158c3.02 0 5.2-1.34 5.2-3.792 0-2.498-1.704-3.338-3.52-3.678l-2.27-.432c-.568-.113-.886-.363-.886-.817 0-.454.522-.818 1.385-.818 1.18 0 1.59.681 1.567 1.226h3.45c0-2.202-1.861-3.973-4.949-3.973-3.179 0-4.882 1.59-4.882 3.52 0 2.383 1.726 3.36 3.633 3.723l1.749.34c.817.16 1.203.41 1.203.932 0 .408-.431.862-1.68.862-1.25 0-1.771-.658-1.771-1.317h-3.497c.068 2.43 1.567 4.224 5.268 4.224z" transform="translate(-162 -15) translate(162 15) translate(41.14 10.32)"/>
                    <path fill="#58B368" d="M15.519 3.538L15.519 0 12.023 0 12.023 3.538z" transform="translate(-162 -15) translate(162 15) translate(41.14 10.32)"/>
                </g>
            </g>
        </g>
    </g>
</svg>
