<svg xmlns="http://www.w3.org/2000/svg" width="11" height="10" viewBox="0 0 11 10">
    <g fill="none" fill-rule="evenodd">
        <g fill="#58B368" fill-rule="nonzero">
            <g>
                <g>
                    <g>
                        <g>
                            <g>
                                <path d="M99.787 4.216l4.032 4.326c.241.258.241.658 0 .916l-4.032 4.326c-.255.273-.685.29-.96.036-.276-.253-.292-.68-.037-.953l2.976-3.193H93.68c-.376 0-.68-.301-.68-.674 0-.373.304-.675.68-.675h8.085L98.79 5.133c-.255-.273-.239-.7.037-.953.275-.254.705-.237.96.036z" transform="translate(-278 -1156) translate(0 516) translate(165 50) translate(0 424) translate(20 110) translate(0 52)"/>
                            </g>
                        </g>
                    </g>
                </g>
            </g>
        </g>
    </g>
</svg>
