<svg xmlns="http://www.w3.org/2000/svg" width="52" height="33" viewBox="0 0 52 33">
    <g fill="none" fill-rule="evenodd">
        <g fill-rule="nonzero">
            <g>
                <g>
                    <g>
                        <g>
                            <g>
                                <path fill="#B9BFD0" stroke="#B9BFD0" stroke-width=".847" d="M44.968 3.373c-2.174.168-5.052.753-8.342 1.694C32.27.37 25.503-1.212 19.518 1.065c-6.646 2.538-10.586 9.142-10.082 15.92-2.98 1.8-5.386 3.52-6.974 4.991C.482 23.81-.241 25.254.252 26.39c.21.486.625.852 1.231 1.09.606.238 1.404.337 2.312.337 2.245 0 5.165-.607 7.535-1.219.603-.156 1.222-.325 1.858-.508 3.3 3.855 8.262 5.875 13.317 5.423 5.055-.453 9.579-3.322 12.142-7.702 1.725-2.95 2.454-6.376 2.079-9.771 1.127-.685 2.18-1.364 3.145-2.028 4.681-3.226 6.603-5.607 5.877-7.28-.49-1.125-2.053-1.57-4.78-1.358zM39.403 9.26c-.38-.84-.832-1.645-1.352-2.406 2.139-.218 2.81.181 2.872.323.06.14-.125.812-1.52 2.083h0zm-19.36-6.82C25.56.34 31.8 1.863 35.73 6.27c.048.085.113.16.191.219.958 1.123 1.735 2.389 2.304 3.75-.296.23-.622.471-.984.727-2.904 2.052-6.996 4.273-11.524 6.254-5.64 2.468-10.407 3.91-13.602 4.452-.115-.258-.223-.519-.323-.781-.421-1.111-.703-2.27-.839-3.45.01-.098 0-.196-.03-.29-.585-6.243 3.003-12.376 9.119-14.712zM9.766 19.225c.165.743.383 1.474.653 2.186.058.154.12.308.183.46-1.056.095-1.839.047-2.301-.134-.1-.028-.19-.086-.254-.168-.078-.178.123-.951 1.719-2.344zm27.612 3.84c-2.26 3.873-6.218 6.451-10.674 6.955-4.456.504-8.889-1.126-11.957-4.397 3.888-1.2 8.236-2.832 12.572-4.73 4.387-1.92 8.5-3.988 12.004-6.023.181 2.864-.496 5.718-1.945 8.195z" transform="translate(-569 -1043) translate(0 516) translate(165 50) translate(380 424) translate(20 40) translate(5 14)"/>
                                <path fill="#FFCA7B" d="M43.037 10.8c-4.127 2.844-9.919 5.95-16.307 8.747-12.724 5.569-22.228 7.538-24.71 6.563-.157-.062-.357-.165-.419-.306-.118-.272.141-1.157 1.86-2.749 1.069-.962 2.203-1.85 3.393-2.657-.328.652-.381 1.24-.156 1.758.185.426.543.745 1.065.95.5.196 1.148.277 1.877.277 1.633 0 3.67-.404 5.323-.817 3.316-.828 7.345-2.248 11.346-3.999 4.614-2.02 8.799-4.293 11.781-6.4 3.4-2.402 4.768-4.226 4.18-5.576-.225-.52-.7-.88-1.418-1.082 5.174-1.124 7.327-.697 7.547-.192.207.476-.648 2.234-5.362 5.483z" transform="translate(-569 -1043) translate(0 516) translate(165 50) translate(380 424) translate(20 40) translate(5 14)"/>
                            </g>
                        </g>
                    </g>
                </g>
            </g>
        </g>
    </g>
</svg>
