<svg xmlns="http://www.w3.org/2000/svg" width="414" height="167" viewBox="0 0 414 167">
    <g fill="none" fill-rule="evenodd">
        <g>
            <g>
                <g>
                    <g>
                        <g>
                            <path fill="#767676" d="M15.513 82.868C48.08 45.266 82.192 60.57 113.997 69.082c23.066 6.173 45.984-5.185 75.1-43.446 39.706-52.178 177.34-20.532 152.246 59.745-12.145 38.848 93.772 41.882 68.752 80.715L22.984 164.39s-44.176-39.144-7.471-81.523z" opacity=".1" transform="translate(-25 -1722) translate(0 388) translate(165 118) translate(0 1200) translate(-140 16)"/>
                            <g>
                                <path fill="#EFEEB4" fill-rule="nonzero" d="M32.874 43.71l.61-.055c-.233-4.45-3.6-6.94-3.6-6.94-2.357-2.09-3.124-4.384-3.124-4.384s3.979-4.642.246-7.59c0 0-2.727-1.652-4.95-1.518 0 0 3.15 5.284 2.13 5.81-1.02.525-3.086-6.141-3.086-6.141s-6.206-.602-8.202.358c0 0 5.305 4.341 4.188 4.6-1.117.259-6.848-4.003-6.848-4.003s-5.776.983-5.468 4.506c.308 3.524 2.299 4.613 3.173 4.519.875-.094 5.992-2.048 6.103-1.33.112.716-2.968 3.058-5.125 3.168 0 0 4.072 4.49 6.778 3.195 2.707-1.296 2.938-3.351 4.625-4.122 1.687-.77 3.127-.769 2.43.017-.696.786-3.75 1.55-4.714 3.256-.965 1.707-1.83 2.859.97 2.437 2.8-.422 7.35-2.47 7.55-4.817l.026-.293c.004.186-.025.293-.025.293.584.105 1.797 1.18 2.673 2.022.135.148.335.346.62.61l.263.268c1.778 1.947 2.757 6.133 2.757 6.133" transform="translate(-25 -1722) translate(0 388) translate(165 118) translate(0 1200) translate(-140 16) translate(165 106)"/>
                                <path fill="#DAD873" fill-rule="nonzero" d="M40.672 26.493s-6.33-3.545-3.376-8.354c0 0 2.363-2.954 4.894-3.713 0 0-1.35 7.173 0 7.342 1.35.168.929-8.102.929-8.102s6.666-3.207 9.283-2.954c0 0-4.135 7.005-2.786 6.836 1.35-.168 5.992-7.257 5.992-7.257s6.836-1.267 7.932 2.784c1.098 4.05-.675 6.076-1.687 6.33-1.013.253-7.51.169-7.342 1.012.169.844 4.557 2.194 7.004 1.435 0 0-2.7 6.666-6.245 6.329-3.544-.338-4.64-2.532-6.835-2.7-2.194-.169-3.797.421-2.7 1.012s4.81.193 6.582 1.7c1.773 1.507 3.206 2.435-.084 3.11-3.292.675-9.199.254-10.38-2.278l-1.181-2.532" transform="translate(-25 -1722) translate(0 388) translate(165 118) translate(0 1200) translate(-140 16) translate(165 106)"/>
                                <path fill="#EFEEB4" fill-rule="nonzero" d="M60.418 14.341S42.697 20.08 40.672 26.493c0 0 .084 2.87-1.688 6.16 0 0-2.734 4.15-1.175 9.202l.703-.188s-.615-5.012.546-7.916l.202-.449c.21-.411.35-.713.44-.933.632-1.296 1.545-2.99 2.153-3.344 0 0-3.967-5.57 18.565-14.684" transform="translate(-25 -1722) translate(0 388) translate(165 118) translate(0 1200) translate(-140 16) translate(165 106)"/>
                                <path fill="#DAD873" fill-rule="nonzero" d="M30.602 21.605s8.343-4.672 4.45-11.012c0 0-3.115-3.894-6.452-4.895 0 0 1.78 9.455 0 9.677-1.78.223-1.224-10.678-1.224-10.678S18.588.47 15.14.803c0 0 5.45 9.233 3.67 9.01-1.779-.222-7.897-9.566-7.897-9.566S1.903-1.421.456 3.917c-1.446 5.34.89 8.01 2.225 8.344 1.335.334 9.9.223 9.678 1.334-.223 1.113-6.007 2.893-9.233 1.892 0 0 3.56 8.788 8.232 8.343 4.672-.446 6.118-3.337 9.01-3.56 2.893-.222 5.006.556 3.56 1.335-1.446.779-6.34.255-8.677 2.241-2.336 1.986-4.227 3.21.111 4.1 4.339.89 12.126.333 13.683-3.004l1.557-3.337" transform="translate(-25 -1722) translate(0 388) translate(165 118) translate(0 1200) translate(-140 16) translate(165 106)"/>
                                <path fill="#EFEEB4" fill-rule="nonzero" d="M32.827 29.726c-2.336-4.34-2.225-8.121-2.225-8.121-2.67-8.454-26.03-16.019-26.03-16.019 29.7 12.014 24.473 19.356 24.473 19.356.8.467 2 2.693 2.834 4.401.117.292.305.693.585 1.24.113.247.203.448.266.59 1.53 3.826.719 10.433.719 10.433l.926.25c2.054-6.66-1.548-12.13-1.548-12.13" transform="translate(-25 -1722) translate(0 388) translate(165 118) translate(0 1200) translate(-140 16) translate(165 106)"/>
                                <path fill="#454D66" d="M14.541 39.954c0 9.026 7.317 16.342 16.343 16.342 1.884 0 3.694-.318 5.378-.906 6.383-2.223 10.964-8.295 10.964-15.436H14.54" transform="translate(-25 -1722) translate(0 388) translate(165 118) translate(0 1200) translate(-140 16) translate(165 106)"/>
                                <path fill="#454D66" d="M25.298 39.954c0 6.123 1.467 12.359 6.451 15.157.828.466 3.603-.038 4.513.28 6.383-2.224 10.964-8.296 10.964-15.437H25.298" transform="translate(-25 -1722) translate(0 388) translate(165 118) translate(0 1200) translate(-140 16) translate(165 106)"/>
                                <path fill="#5E667F" d="M30.884 56.296c.664.083-2.68 0-1.991 0 9.025 0 16.341-7.317 16.341-16.342h-4.06c0 8.339-2.223 15.342-10.29 16.342" transform="translate(-25 -1722) translate(0 388) translate(165 118) translate(0 1200) translate(-140 16) translate(165 106)"/>
                                <path fill="#5E667F" d="M14.315 57.128h33.137c0-.557-.226-1.061-.591-1.425-.365-.365-.869-.592-1.426-.592H16.331c-1.113 0-2.016.903-2.016 2.017M14.169 40.455L47.764 40.455 47.764 39.954 14.169 39.954z" transform="translate(-25 -1722) translate(0 388) translate(165 118) translate(0 1200) translate(-140 16) translate(165 106)"/>
                            </g>
                            <g>
                                <path fill="#2C3A64" d="M49.896 158.291c.03.016.066.029.106.045h21.12c-.198-.752-.888-2.12-3.304-2.514-3.277-.532-8.958-2.436-10.225-6.63-.039-.133-.075-.272-.108-.412-1.006-4.48-8.321 1.373-8.321 1.373s-.023.177-.053.482c-.17 1.644-.604 6.962.785 7.656" transform="translate(-25 -1722) translate(0 388) translate(165 118) translate(0 1200) translate(-140 16) translate(250.682 5.49)"/>
                                <path fill="#343C55" fill-rule="nonzero" d="M77.829 82.436s-13.736 48.792-17.872 67.66c0 0-10.196 2.046-11.781-1.158 0 0 3.284-53.133 9.328-59.883 7.517-8.395 20.325-6.62 20.325-6.62" transform="translate(-25 -1722) translate(0 388) translate(165 118) translate(0 1200) translate(-140 16) translate(250.682 5.49)"/>
                                <path fill="#FFE8D9" d="M78.964 32.982s-.36-2.182.202-4 2.914-6.612 2.17-8.278c-.744-1.666-3.438-6.148-5.099-6.134-1.661.013 1.747 4.796 1.278 6.29-.468 1.495-.623 1.616-1.2 1.484-.577-.131-1.456-2.992-1.748-2.324-.292.667-.122 5.095.427 6.2.549 1.105-.577 7.337-.577 7.337l4.547-.575" transform="translate(-25 -1722) translate(0 388) translate(165 118) translate(0 1200) translate(-140 16) translate(250.682 5.49)"/>
                                <path fill="#F3BB67" fill-rule="nonzero" d="M80.293 32.011s-3.678-2.089-6.523-1.208c0 0-5.644 16.257-8.753 28.212-5.967-14.724-9.638-29.409-9.638-29.409s-7.235 9.991-9.848 16.635C42.92 52.885 58.53 76.193 64.586 78.023c6.32 1.908 5.17-.004 8.737-2.044 1.147-1.489 4.816-8.899 6.97-43.968" transform="translate(-25 -1722) translate(0 388) translate(165 118) translate(0 1200) translate(-140 16) translate(250.682 5.49)"/>
                                <path fill="#2C3A64" d="M96.931 159.052c.03.015.066.03.106.044h21.12c-.197-.75-.888-2.12-3.304-2.513-3.277-.533-8.957-2.436-10.224-6.63-.04-.133-.076-.272-.109-.412-1.006-4.479-8.321 1.373-8.321 1.373s-.023.178-.053.483c-.17 1.642-.604 6.96.785 7.655" transform="translate(-25 -1722) translate(0 388) translate(165 118) translate(0 1200) translate(-140 16) translate(250.682 5.49)"/>
                                <path fill="#454D66" fill-rule="nonzero" d="M81.928 81.25s-2.057.917-4.597 2.789c-.289-1.47-.705-2.426-.705-2.426-18.125-4.72-66.641-4.336-66.641-4.336S-.446 79.89 2.616 95.074c2.82 13.972 49.403 7.501 64.45 3.31.35-.098.691-.201 1.021-.308-1.196 8.903 7.187 21.603 14.526 33.29 6.05 9.635 11.2 19.388 11.2 19.388 3.038 1.884 13.24.795 13.24.795-6.449-18.21-25.125-70.298-25.125-70.298" transform="translate(-25 -1722) translate(0 388) translate(165 118) translate(0 1200) translate(-140 16) translate(250.682 5.49)"/>
                                <path fill="#FFE8D9" d="M41.928 24.674s5.204 16.657 13.02 20.383c0 0 .738-5.054-.526-8.897 1.032-.79 1.946-1.524 2.744-2.184 2.65-2.206 3.99-3.618 3.99-3.618l-1.95-13.633c-1.271 1.456-2.583 2.648-3.891 3.626-6.749 5.032-13.387 4.323-13.387 4.323" transform="translate(-25 -1722) translate(0 388) translate(165 118) translate(0 1200) translate(-140 16) translate(250.682 5.49)"/>
                                <path fill="#FAD9C2" d="M55.315 20.35s-2.622 7.212 1.851 13.626c2.65-2.206 3.99-3.618 3.99-3.618l-1.162-8.122c-2.798-1.565-4.68-1.885-4.68-1.885" transform="translate(-25 -1722) translate(0 388) translate(165 118) translate(0 1200) translate(-140 16) translate(250.682 5.49)"/>
                                <path fill="#FFE8D9" d="M63.139 31.936s-11.524-7.645-6.652-14.748c4.871-7.102 6.665-12.872 14.228-8.292 7.564 4.581 7.119 8.262 6.069 11.028-1.049 2.766-10.523 13.818-13.645 12.012" transform="translate(-25 -1722) translate(0 388) translate(165 118) translate(0 1200) translate(-140 16) translate(250.682 5.49)"/>
                                <path fill="#454D66" fill-rule="nonzero" d="M57.826 2.319c-.05-.194-.265-.436-.849-.763 0 0 .629-.07 1.278.229.54-.786 1.72-2.068 3.334-1.73 0 0-.977.04-1.519.892 2.512-.92 6.694-.436 16.173 5.189 12.493 7.413 4.065 13.769 1.887 13.952-2.177.183-5.06-4.656-8.321-5.94-3.26-1.284-6.112 3.026-7.485 3.137-1.374.11-.409-.802-1.524-2.168-1.116-1.366-2.44.99-2.796 2.768-.355 1.78-3.352 2.888-3.352 2.888l-.928-3.166c-.928-3.166 1.727-13.35 3.602-14.878l.5-.41" transform="translate(-25 -1722) translate(0 388) translate(165 118) translate(0 1200) translate(-140 16) translate(250.682 5.49)"/>
                                <path fill="#FFCA7B" fill-rule="nonzero" d="M55.95 52.428c-3.461 8.198-6.626 13.432-7.04 14.117-1.492 2.465-3.093 4.727-4.557 6.704l-.139.188c-2.884 3.879-7.294 4.948-7.156 5.92.275 1.953-4.655 6.636-12.784 8.713-9.433 2.41-20.363 3.57-23.126.38-.924-1.07-1.231-3.039-1.13-5.487.202-5.155 6.693-25.92 6.693-25.92 11.102-33.597 42.895-33.597 42.895-33.597s-.622 8.049 7.18 10.842c.01.017 1.835 11.814-.836 18.14" transform="translate(-25 -1722) translate(0 388) translate(165 118) translate(0 1200) translate(-140 16) translate(250.682 5.49)"/>
                                <path fill="#FFE8D9" d="M74.621 76.334s4.775 1.69 6.084 2.508c1.31.82 4.323 4.945 4.664 6.392.339 1.445.736 5.697.489 6.408-.247.71-3.903-2.016-4.714-4.582-.812-2.567-2.9-3.258-2.82-3.12.08.138 1.148 3.424.923 3.566-.226.141-1.198.387-2.08-1.447-.88-1.834-2.627-3.175-2.296-5.069.329-1.896-.25-4.656-.25-4.656" transform="translate(-25 -1722) translate(0 388) translate(165 118) translate(0 1200) translate(-140 16) translate(250.682 5.49)"/>
                                <path fill="#F3BB67" fill-rule="nonzero" d="M37.215 79.629c.276 1.952-4.812 6.364-12.941 8.44-6.781-13.49 6.111-44.371 6.111-44.371l13.968 29.55c-2.947 3.98-7.276 5.393-7.138 6.38" transform="translate(-25 -1722) translate(0 388) translate(165 118) translate(0 1200) translate(-140 16) translate(250.682 5.49)"/>
                                <path fill="#F3BB67" fill-rule="nonzero" d="M48.91 66.545c-1.492 2.465-3.093 4.727-4.557 6.704l-.139.188c-1.916-.74-3.817-2.212-4.775-3.567-2.201-3.106-2.381-21.781-2.381-21.781s9.005 11.125 11.852 18.456" transform="translate(-25 -1722) translate(0 388) translate(165 118) translate(0 1200) translate(-140 16) translate(250.682 5.49)"/>
                                <path fill="#FFCA7B" fill-rule="nonzero" d="M76.454 76.754s-21.785-6.098-32.966-8.766c.985-13.193 4.214-53.078-16.101-37.112 0 0-1.535 42.745 8.308 51.403 0 0 31.6.67 37.618.3 0 0 1.768-.915 2.207-1.525 1.405-1.95.934-4.3.934-4.3" transform="translate(-25 -1722) translate(0 388) translate(165 118) translate(0 1200) translate(-140 16) translate(250.682 5.49)"/>
                                <path fill="#58B368" fill-rule="nonzero" d="M57.847 102.996v8.403c0 1.735-1.42 3.154-3.154 3.154H5.016c-1.734 0-3.153-1.42-3.153-3.154v-8.403c0-1.735 1.419-3.154 3.153-3.154h49.677c1.734 0 3.154 1.419 3.154 3.154" transform="translate(-25 -1722) translate(0 388) translate(165 118) translate(0 1200) translate(-140 16) translate(250.682 5.49)"/>
                                <path fill="#72CF82" fill-rule="nonzero" d="M57.847 109.87v1.53c0 1.734-1.42 3.153-3.154 3.153H5.016c-1.734 0-3.153-1.42-3.153-3.154v-1.656h55.08c.313 0 .618.044.904.126" transform="translate(-25 -1722) translate(0 388) translate(165 118) translate(0 1200) translate(-140 16) translate(250.682 5.49)"/>
                                <path fill="#E8C6A7" d="M13.821 114.553l-2.238 8.482-.003.003-9.323 35.3h-.98l5.388-29.287c.005-.029.012-.058.019-.09l2.664-14.484 4.473.076M57.847 158.339h-.98l-7.596-28.757v-.005l-1.727-6.54-.002-.002-2.24-8.482 4.473-.076 2.666 14.485.017.09 5.389 29.287M42.716 125.672l-.019-.012c-.024-.043-.017-.033.019.012" transform="translate(-25 -1722) translate(0 388) translate(165 118) translate(0 1200) translate(-140 16) translate(250.682 5.49)"/>
                            </g>
                        </g>
                    </g>
                </g>
            </g>
        </g>
    </g>
</svg>
