<svg xmlns="http://www.w3.org/2000/svg" width="10" height="9" viewBox="0 0 10 9">
    <g fill="none" fill-rule="evenodd">
        <g fill="#58B368">
            <g>
                <g>
                    <g>
                        <g>
                            <path d="M9.997 4.778c-.02-.572-.214-1.155-.521-1.558-.224-.294-.438-.555-.788-.763-1.168-.697-2.472-.591-3.428.28-.091.083-.175.171-.26.276-.085-.104-.17-.194-.26-.276-.956-.871-2.258-.977-3.428-.28-.351.21-.556.459-.788.763-.306.403-.501.986-.52 1.558-.017.486.026.916.13 1.318.129.502.367.99.708 1.448.355.479.787.843 1.206 1.198.153.13.312.263.46.398.266.242.757.65 1.254 1.038.284.223.496.383.646.489.349.258.438.3.502.32.028.008.056.012.096.013.028 0 .057-.005.087-.014.061-.02.15-.06.497-.317.152-.108.364-.268.649-.49.493-.387.985-.795 1.253-1.039.148-.135.307-.269.462-.4.417-.353.849-.716 1.205-1.196.34-.458.578-.945.708-1.448.103-.402.146-.833.13-1.318" transform="translate(-185 -1831) translate(0 1398) translate(165 50) translate(0 112) translate(20 269)"/>
                        </g>
                    </g>
                </g>
            </g>
        </g>
    </g>
</svg>
