<svg xmlns="http://www.w3.org/2000/svg" width="89" height="118" viewBox="0 0 89 118">
    <g fill="none" fill-rule="evenodd">
        <g fill-rule="nonzero">
            <g>
                <g>
                    <g>
                        <g>
                            <g>
                                <path fill="#B9BFD0" d="M74.777 7.922H56.023C53.048 1.213 45.23-1.821 38.494 1.126c-3.034 1.342-5.454 3.762-6.796 6.796H12.944C5.886 7.922.14 13.667.14 20.725v83.125c0 7.059 5.746 12.805 12.804 12.805h61.833c7.058 0 12.805-5.746 12.805-12.805V20.725c0-7.087-5.747-12.803-12.805-12.803zm-40.95 5.833c1.371 0 2.568-.963 2.86-2.305.699-3.266 3.732-5.628 7.174-5.628 3.441 0 6.474 2.362 7.203 5.628.292 1.342 1.488 2.305 2.859 2.305h5.775v2.567c0 3.85-3.12 6.97-6.97 6.97H35.023c-3.85 0-6.97-3.12-6.97-6.97v-2.567h5.775zM81.75 103.85c0 3.85-3.122 6.972-6.972 6.972H12.944c-3.85 0-6.97-3.122-6.97-6.972V20.725c0-3.85 3.12-6.97 6.97-6.97h9.245v2.567c0 7.058 5.747 12.804 12.805 12.804h17.704c7.058 0 12.804-5.746 12.804-12.804v-2.567h9.275c3.85 0 6.972 3.12 6.972 6.97v83.125z" transform="translate(-220 -737) translate(0 388) translate(165 118) translate(0 200) translate(30 20) translate(25.667 11.667)"/>
                                <path fill="#FFCA7B" d="M58.298 53.888L39.136 72.584l-9.713-9.48c-1.137-1.136-3.004-1.108-4.112.059-1.108 1.138-1.108 2.946 0 4.083l.029.03 11.754 11.491c1.137 1.109 2.946 1.109 4.083 0l21.176-20.679c1.137-1.138 1.167-2.974.028-4.113-1.108-1.195-2.945-1.224-4.083-.087z" transform="translate(-220 -737) translate(0 388) translate(165 118) translate(0 200) translate(30 20) translate(25.667 11.667)"/>
                            </g>
                        </g>
                    </g>
                </g>
            </g>
        </g>
    </g>
</svg>
