<svg xmlns="http://www.w3.org/2000/svg" width="38" height="50" viewBox="0 0 38 50">
    <g fill="none" fill-rule="evenodd">
        <g fill-rule="nonzero">
            <g>
                <g>
                    <g>
                        <g>
                            <g>
                                <path fill="#B9BFD0" d="M24.92.35l-.012-.012c-.212-.219-.505-.341-.81-.338-.04-.001-.082.002-.123.012H5.852C2.624.013.007 2.63.006 5.858v37.775c.001 3.228 2.618 5.845 5.846 5.846h26.285c3.228-.001 5.845-2.618 5.846-5.846V13.851c-.002-.298-.119-.583-.326-.798L24.92.35zm.303 3.473l8.95 8.926H28.82c-1.985-.005-3.592-1.613-3.598-3.597v-5.33zM35.735 43.61c-.006 1.985-1.613 3.592-3.598 3.598H5.852c-1.985-.006-3.592-1.613-3.598-3.598V5.835c.006-1.984 1.613-3.591 3.598-3.597h17.122v6.914c.002 3.228 2.619 5.845 5.847 5.846h6.914V43.61z" transform="translate(-196 -787) translate(0 516) translate(165 50) translate(0 176) translate(20 40) translate(11 5)"/>
                                <path fill="#FFCA7B" d="M8.056 31.311h14.008c.62 0 1.124-.503 1.124-1.124 0-.621-.503-1.124-1.124-1.124H8.056c-.621 0-1.125.503-1.125 1.124 0 .62.504 1.124 1.125 1.124zM6.931 38.697c.002.62.504 1.123 1.125 1.125h21.878c.62 0 1.124-.504 1.124-1.125 0-.62-.504-1.124-1.124-1.124H8.056c-.62.002-1.123.504-1.125 1.124z" transform="translate(-196 -787) translate(0 516) translate(165 50) translate(0 176) translate(20 40) translate(11 5)"/>
                                <g fill="#B9BFD0">
                                    <path d="M5.695 8.354c2.278 0 4.126-1.848 4.126-4.126C9.82 1.949 7.973.1 5.695.1c-2.28 0-4.126 1.848-4.126 4.127.001 2.278 1.847 4.124 4.126 4.126zm0-5.993c1.037 0 1.877.84 1.877 1.878 0 1.037-.84 1.877-1.877 1.877s-1.878-.84-1.878-1.877c.002-1.036.842-1.876 1.878-1.878zM1.198 16.752c.62-.002 1.122-.504 1.124-1.124v-.9c0-1.863 1.51-3.373 3.373-3.373 1.862 0 3.372 1.51 3.372 3.373v.9c0 .62.504 1.124 1.125 1.124.62 0 1.124-.503 1.124-1.124v-.9c0-3.104-2.517-5.621-5.621-5.621-3.105 0-5.622 2.517-5.622 5.621v.9c.002.62.505 1.122 1.125 1.124z" transform="translate(-196 -787) translate(0 516) translate(165 50) translate(0 176) translate(20 40) translate(11 5) translate(6.858 7.757)"/>
                                </g>
                            </g>
                        </g>
                    </g>
                </g>
            </g>
        </g>
    </g>
</svg>
