<svg xmlns="http://www.w3.org/2000/svg" width="52" height="44" viewBox="0 0 52 44">
    <g fill="none" fill-rule="evenodd">
        <g fill-rule="nonzero">
            <g>
                <g>
                    <g>
                        <g>
                            <g>
                                <path fill="#B9BFD0" stroke="#B9BFD0" stroke-width=".847" d="M45.396 37.062c2.715-3.218 3.454-7.663 1.927-11.587-1.526-3.923-5.076-6.7-9.252-7.236V5.062c-.003-2.79-2.264-5.051-5.055-5.054H5.055C2.265.01.003 2.272 0 5.062v23.51c.003 2.79 2.264 5.052 5.055 5.055H25.8c1.322 3.597 4.348 6.299 8.07 7.206 3.724.907 7.654-.1 10.482-2.685l3.957 3.956c.294.294.77.294 1.064 0 .294-.294.294-.77 0-1.065l-3.977-3.977zM5.055 1.513h27.961c1.96.003 3.547 1.59 3.55 3.55v3.693H1.505V5.062c.002-1.959 1.59-3.546 3.549-3.549zm0 30.609c-1.96-.002-3.547-1.59-3.55-3.55v-18.31h35.06v7.883c-3.479.011-6.767 1.595-8.943 4.31-2.177 2.714-3.008 6.268-2.263 9.666H5.055zm21.542-2.47c0-5.523 4.478-10.001 10.002-10.001 5.524 0 10.002 4.478 10.002 10.002 0 5.524-4.478 10.001-10.002 10.001-5.521-.005-9.996-4.48-10.002-10.001z" transform="translate(-949 -790) translate(0 516) translate(165 50) translate(760 176) translate(20 40) translate(5 9)"/>
                                <path fill="#FFCA7B" d="M5.761 18.311h10.34c.459 0 .83-.503.83-1.124 0-.621-.371-1.124-.83-1.124H5.761c-.458 0-.83.503-.83 1.124 0 .62.372 1.124.83 1.124zM4.931 23.697c.002.62.376 1.123.84 1.125h16.322c.463 0 .838-.504.838-1.125 0-.62-.375-1.124-.838-1.124H5.77c-.463.002-.837.504-.839 1.124z" transform="translate(-949 -790) translate(0 516) translate(165 50) translate(760 176) translate(20 40) translate(5 9)"/>
                            </g>
                        </g>
                    </g>
                </g>
            </g>
        </g>
    </g>
</svg>
