<svg xmlns="http://www.w3.org/2000/svg" width="48" height="40" viewBox="0 0 48 40">
    <g fill="none" fill-rule="evenodd">
        <g fill-rule="nonzero">
            <g>
                <g>
                    <g>
                        <g>
                            <g>
                                <path fill="#B9BFD0" stroke="#B9BFD0" stroke-width=".7" d="M43.204 10.518h-3.839v4.477h-.929c-1.032 0-1.869.838-1.869 1.87v22.093h7.54c1.033 0 1.87-.837 1.87-1.87V16.865l-.005-.146c-.075-.964-.88-1.723-1.864-1.723l-.904-.001v-4.477zm-1.5 1.5v4.478h2.404c.204 0 .37.165.37.37v20.222l-.008.075c-.035.168-.184.295-.362.295l-6.041-.001V16.865c0-.204.165-.37.37-.37h2.428v-4.477h.839z" transform="translate(-191 -1041) translate(0 516) translate(165 50) translate(0 424) translate(20 40) translate(7 11)"/>
                                <g fill="#FFCA7B">
                                    <path d="M7.835 9.03h8.955V1.12C16.79.5 16.29 0 15.67 0H7.836v9.03zM.132 2.905c-.194.364-.173.805.056 1.149L2.012 6.79.188 9.528c-.229.343-.25.785-.056 1.149.195.364.574.591.987.591h4.478V2.313H1.119c-.413 0-.792.228-.987.592z" transform="translate(-191 -1041) translate(0 516) translate(165 50) translate(0 424) translate(20 40) translate(7 11) translate(27.337)"/>
                                </g>
                                <path fill="#B9BFD0" stroke="#B9BFD0" stroke-width=".7" d="M31.952 21.712h-5.596c-1.033 0-1.87.837-1.87 1.87v15.376h9.336V23.58c0-1.032-.837-1.87-1.87-1.87zm0 1.5l.075.007c.168.035.295.184.295.362l-.001 13.876h-6.335V23.581c0-.204.166-.37.37-.37h5.596zM19.872 26.19h-5.597c-1.033 0-1.87.836-1.87 1.869v10.899h9.336v-10.9c0-1.032-.837-1.869-1.87-1.869zm0 1.5l.074.007c.168.034.295.183.295.362l-.001 9.398h-6.335v-9.398c0-.204.166-.37.37-.37h5.597zM7.79 30.667H2.12c-1.033 0-1.87.837-1.87 1.87v4.551c0 1.033.837 1.87 1.87 1.87h7.54v-6.422c0-1.032-.837-1.87-1.87-1.87zm.075 1.507c.169.035.295.184.295.362v4.921H2.12c-.205 0-.37-.165-.37-.369v-4.552c0-.204.165-.37.37-.37h5.67l.075.008z" transform="translate(-191 -1041) translate(0 516) translate(165 50) translate(0 424) translate(20 40) translate(7 11)"/>
                            </g>
                        </g>
                    </g>
                </g>
            </g>
        </g>
    </g>
</svg>
